<svg width="2030" height="1430" viewBox="0 0 2030 1430" fill="none" xmlns="http://www.w3.org/2000/svg">
<g clip-path="url(#clip0_3_262)">
<path d="M1106.11 741.558L1106.11 741.557C1106.59 740.055 1106.71 738.461 1106.45 736.906C1106.2 735.35 1105.58 733.876 1104.65 732.603C1103.72 731.331 1102.5 730.296 1101.1 729.583C1099.69 728.871 1098.14 728.499 1096.56 728.5H907.362C905.785 728.499 904.232 728.871 902.826 729.583C901.42 730.296 900.202 731.331 899.271 732.603C898.34 733.876 897.723 735.35 897.469 736.906C897.215 738.462 897.331 740.055 897.809 741.557C897.809 741.558 897.809 741.558 897.809 741.558L920.349 812.456L920.349 812.457L925.459 828.556L925.459 828.557L942.049 880.756L942.049 880.757L947.159 896.856L947.159 896.857L963.759 949.096L963.759 949.097L968.579 964.286L968.579 964.287L991.895 1037.7C991.897 1037.71 991.9 1037.72 991.902 1037.73C992.548 1039.89 993.873 1041.78 995.68 1043.13C997.494 1044.48 999.698 1045.22 1001.96 1045.22C1004.23 1045.22 1006.43 1044.48 1008.24 1043.13C1010.05 1041.78 1011.37 1039.89 1012.02 1037.73C1012.02 1037.72 1012.03 1037.71 1012.03 1037.7L1063.67 875.147L1063.67 875.147L1073.54 844.067L1073.54 844.067L1106.11 741.558Z" fill="#F4DBB6" stroke="#674B34" stroke-width="5"/>
<path d="M1096.56 731H1072.08L984.582 1006.42L994.292 1036.99C994.782 1038.64 995.794 1040.09 997.176 1041.13C998.558 1042.16 1000.24 1042.72 1001.96 1042.72C1003.69 1042.72 1005.37 1042.16 1006.75 1041.13C1008.13 1040.09 1009.14 1038.64 1009.63 1036.99L1103.73 740.8C1104.09 739.673 1104.18 738.476 1103.99 737.309C1103.8 736.141 1103.33 735.035 1102.63 734.08C1101.94 733.125 1101.02 732.348 1099.97 731.813C1098.91 731.278 1097.74 730.999 1096.56 731V731Z" fill="#F1CF9D"/>
<path d="M1061.71 749.265C1112.87 755.206 1159.16 718.546 1165.1 667.382C1171.04 616.219 1134.38 569.926 1083.22 563.985C1032.06 558.044 985.764 594.705 979.823 645.868C973.882 697.032 1010.54 743.324 1061.71 749.265Z" fill="#FD4755" stroke="#674B34" stroke-width="5"/>
<path d="M1102.2 570.887C1115.92 585.741 1124.28 604.748 1125.96 624.894C1127.64 645.04 1122.55 665.171 1111.49 682.093C1100.43 699.016 1084.03 711.761 1064.91 718.306C1045.78 724.852 1025.02 724.824 1005.91 718.226C1015.28 728.344 1026.83 736.193 1039.69 741.177C1052.55 746.162 1066.37 748.15 1080.11 746.991C1093.86 745.832 1107.15 741.556 1119 734.488C1130.84 727.421 1140.91 717.747 1148.46 706.203C1156 694.658 1160.81 681.546 1162.53 667.863C1164.25 654.179 1162.82 640.284 1158.37 627.234C1153.91 614.183 1146.54 602.32 1136.81 592.545C1127.08 582.771 1115.25 575.342 1102.22 570.823L1102.2 570.887Z" fill="#FB2B3A"/>
<path d="M1105.27 647.721C1105.65 647.823 1106.04 647.85 1106.42 647.801C1106.81 647.752 1107.18 647.628 1107.51 647.436C1107.85 647.245 1108.14 646.989 1108.38 646.684C1108.61 646.378 1108.79 646.03 1108.89 645.658C1109.44 643.603 1110.8 641.854 1112.65 640.796C1114.5 639.738 1116.7 639.458 1118.77 640.017C1120.83 640.575 1122.59 641.927 1123.66 643.775C1124.73 645.623 1125.01 647.815 1124.46 649.87C1124.25 650.622 1124.36 651.424 1124.75 652.1C1125.14 652.776 1125.78 653.27 1126.54 653.475C1127.29 653.679 1128.1 653.577 1128.78 653.19C1129.46 652.803 1129.95 652.163 1130.15 651.411C1131.12 647.853 1130.62 644.056 1128.77 640.856C1126.92 637.656 1123.88 635.315 1120.3 634.348C1116.73 633.381 1112.92 633.866 1109.71 635.698C1106.5 637.53 1104.15 640.558 1103.19 644.117C1103.09 644.489 1103.07 644.877 1103.12 645.26C1103.17 645.642 1103.29 646.012 1103.48 646.346C1103.68 646.681 1103.93 646.975 1104.24 647.211C1104.55 647.447 1104.9 647.62 1105.27 647.721V647.721ZM1036.54 629.125C1036.91 629.227 1037.3 629.254 1037.69 629.205C1038.07 629.156 1038.44 629.032 1038.78 628.84C1039.11 628.649 1039.41 628.393 1039.64 628.088C1039.88 627.783 1040.05 627.434 1040.15 627.062C1040.71 625.007 1042.06 623.258 1043.92 622.2C1045.77 621.143 1047.97 620.862 1050.03 621.421C1052.1 621.979 1053.86 623.331 1054.93 625.179C1055.99 627.027 1056.28 629.219 1055.72 631.274C1055.52 632.026 1055.63 632.828 1056.02 633.504C1056.41 634.18 1057.05 634.675 1057.8 634.879C1058.56 635.083 1059.37 634.981 1060.04 634.594C1060.72 634.207 1061.22 633.567 1061.42 632.815C1062.38 629.257 1061.89 625.46 1060.04 622.26C1058.19 619.06 1055.14 616.719 1051.57 615.752C1047.99 614.785 1044.18 615.27 1040.97 617.102C1037.76 618.934 1035.42 621.962 1034.46 625.521C1034.36 625.893 1034.33 626.281 1034.38 626.664C1034.43 627.046 1034.56 627.416 1034.75 627.75C1034.94 628.085 1035.2 628.379 1035.51 628.615C1035.81 628.851 1036.17 629.024 1036.54 629.125V629.125Z" fill="#674B34"/>
<path d="M995.128 759.33L927.718 826.74L922.608 810.64L984.528 748.72C985.22 748.004 986.048 747.433 986.963 747.041C987.878 746.648 988.862 746.442 989.858 746.433C990.854 746.425 991.842 746.615 992.763 746.993C993.685 747.37 994.522 747.928 995.226 748.632C995.93 749.337 996.486 750.174 996.863 751.096C997.239 752.018 997.429 753.006 997.42 754.002C997.41 754.998 997.203 755.982 996.81 756.897C996.416 757.811 995.844 758.639 995.128 759.33V759.33ZM1085.13 759.33L949.418 895L944.308 878.9L1074.53 748.72C1075.94 747.355 1077.84 746.6 1079.8 746.618C1081.77 746.636 1083.65 747.425 1085.04 748.816C1086.43 750.208 1087.22 752.089 1087.24 754.056C1087.25 756.022 1086.49 757.916 1085.13 759.33V759.33Z" fill="#EFCA90"/>
<path d="M1052.12 792.34L1085.12 759.34C1086.48 757.926 1087.24 756.032 1087.23 754.065C1087.21 752.099 1086.42 750.217 1085.03 748.826C1083.64 747.435 1081.76 746.645 1079.79 746.627C1077.83 746.609 1075.93 747.364 1074.52 748.73L1061.99 761.26L1052.12 792.34Z" fill="#E6B15D"/>
<path d="M1071.04 842.21L1061.17 873.29L973.838 960.59C973.001 961.437 971.972 962.069 970.838 962.43L966.018 947.24L1071.04 842.21Z" fill="#EFCA90"/>
<path d="M1061.17 873.29L1065.42 859.9L1071.04 842.21L1020.09 893.16L1010.21 924.25L1061.17 873.29Z" fill="#E4B76B"/>
<path d="M930.838 744.814C980.993 744.814 1021.65 704.155 1021.65 654C1021.65 603.845 980.993 563.186 930.838 563.186C880.682 563.186 840.023 603.845 840.023 654C840.023 704.155 880.682 744.814 930.838 744.814Z" fill="#FDD402" stroke="#674B34" stroke-width="5"/>
<path d="M866.664 654C866.664 609.32 899.845 572.397 942.908 566.51C938.908 565.962 934.875 565.687 930.838 565.686C882.063 565.686 842.523 605.225 842.523 654C842.523 702.775 882.063 742.314 930.838 742.314C934.875 742.313 938.908 742.038 942.908 741.49C899.845 735.603 866.664 698.68 866.664 654Z" fill="#FBBF13"/>
<path d="M936.52 714.003L933.717 714.279C922.095 715.433 910.415 712.736 900.476 706.603C890.537 700.47 882.888 691.241 878.707 680.335C878.565 679.965 878.497 679.571 878.508 679.175C878.518 678.779 878.607 678.388 878.768 678.026C878.929 677.664 879.161 677.338 879.448 677.065C879.736 676.792 880.074 676.579 880.444 676.437C880.814 676.295 881.209 676.228 881.605 676.238C882.001 676.249 882.392 676.337 882.753 676.499C883.115 676.66 883.442 676.891 883.715 677.179C883.987 677.467 884.201 677.805 884.342 678.176C888.05 687.846 894.833 696.03 903.647 701.469C912.462 706.907 922.819 709.298 933.125 708.273L935.928 707.997C946.232 706.979 955.918 702.608 963.499 695.556C971.08 688.503 976.139 679.158 977.898 668.954C978.033 668.166 978.476 667.463 979.129 667.001C979.782 666.539 980.592 666.355 981.38 666.49C982.169 666.625 982.872 667.067 983.334 667.72C983.797 668.373 983.981 669.182 983.847 669.971C981.875 681.483 976.174 692.028 967.623 699.984C959.072 707.94 948.144 712.865 936.52 714.003V714.003ZM903.228 646.937C902.834 646.976 902.436 646.936 902.056 646.821C901.677 646.706 901.324 646.518 901.018 646.266C900.712 646.015 900.458 645.706 900.271 645.356C900.084 645.007 899.968 644.624 899.929 644.23C899.715 642.053 898.644 640.05 896.953 638.662C895.262 637.275 893.089 636.616 890.912 636.83C888.735 637.045 886.733 638.115 885.345 639.806C883.957 641.497 883.298 643.67 883.513 645.847C883.591 646.644 883.35 647.439 882.842 648.057C882.335 648.676 881.602 649.068 880.806 649.146C880.009 649.224 879.214 648.983 878.595 648.476C877.977 647.968 877.585 647.235 877.507 646.439C877.135 642.669 878.277 638.906 880.68 635.978C883.083 633.049 886.551 631.195 890.32 630.824C894.09 630.452 897.853 631.594 900.782 633.997C903.71 636.4 905.564 639.868 905.935 643.638C905.974 644.032 905.935 644.43 905.82 644.809C905.705 645.189 905.516 645.542 905.265 645.848C905.014 646.154 904.704 646.408 904.355 646.595C904.005 646.782 903.623 646.898 903.228 646.937V646.937Z" fill="#74563A"/>
<path d="M967.25 640.521C973.472 640.521 978.515 635.478 978.515 629.256C978.515 623.034 973.472 617.99 967.25 617.99C961.028 617.99 955.984 623.034 955.984 629.256C955.984 635.478 961.028 640.521 967.25 640.521Z" fill="#74563A"/>
<path d="M1000.84 631.5C1000.84 646.688 988.526 659 973.338 659C958.15 659 945.838 646.688 945.838 631.5C945.838 616.312 958.15 604 973.338 604C988.526 604 1000.84 616.312 1000.84 631.5Z" stroke="#74563A" stroke-width="6"/>
<path d="M917.838 640.5C917.838 655.688 905.526 668 890.338 668C875.15 668 862.838 655.688 862.838 640.5C862.838 625.312 875.15 613 890.338 613C905.526 613 917.838 625.312 917.838 640.5Z" stroke="#74563A" stroke-width="6"/>
<path d="M947.085 639.728C946.694 635.605 939.82 632.885 931.732 633.653C923.644 634.42 917.404 638.384 917.795 642.506" stroke="#74563A" stroke-width="6"/>
<path d="M964.031 629.256C964.031 626.975 964.724 624.748 966.017 622.869C967.31 620.99 969.143 619.548 971.273 618.733C969.567 618.081 967.728 617.853 965.915 618.07C964.101 618.286 962.368 618.94 960.863 619.976C959.359 621.011 958.129 622.397 957.279 624.014C956.429 625.63 955.985 627.429 955.985 629.256C955.985 631.082 956.429 632.881 957.279 634.498C958.129 636.114 959.359 637.5 960.863 638.536C962.368 639.571 964.101 640.225 965.915 640.442C967.728 640.659 969.567 640.431 971.273 639.779C969.143 638.964 967.31 637.522 966.017 635.643C964.724 633.764 964.031 631.537 964.031 629.256Z" fill="#674B34"/>
<path d="M1103.06 719.52H900.628C888.671 719.52 878.978 729.213 878.978 741.17C878.978 753.127 888.671 762.82 900.628 762.82H1103.06C1115.01 762.82 1124.71 753.127 1124.71 741.17C1124.71 729.213 1115.01 719.52 1103.06 719.52Z" fill="#ECBBA3" stroke="#674B34" stroke-width="5"/>
<path d="M1103.05 722.02H1091.74C1092.36 724.818 1092.34 727.719 1091.69 730.511C1091.04 733.302 1089.77 735.911 1087.98 738.146C1086.19 740.381 1083.91 742.184 1081.33 743.422C1078.74 744.661 1075.91 745.302 1073.05 745.3H881.938C882.882 749.553 885.248 753.358 888.646 756.085C892.044 758.812 896.271 760.299 900.628 760.3H1103.05C1108.13 760.3 1113 758.282 1116.59 754.691C1120.18 751.1 1122.2 746.229 1122.2 741.15C1122.2 736.071 1120.18 731.2 1116.59 727.609C1113 724.018 1108.13 722 1103.05 722V722.02Z" fill="#E8AD8C"/>
<path d="M1081.16 712.727L1079.37 709.542L1082.98 709.025L1093.16 707.572L1103.02 703.346L1111.58 696.214L1117.44 689.373L1119.71 686.725L1121.49 689.725L1141.77 723.939L1141.78 723.954L1141.79 723.969C1144.91 729.409 1145.74 735.867 1144.1 741.922C1142.47 747.978 1138.49 753.134 1133.05 756.257C1127.61 759.38 1121.15 760.215 1115.1 758.576C1109.04 756.938 1103.89 752.962 1100.76 747.522L1100.76 747.513L1100.75 747.504L1081.16 712.727Z" fill="#E5303E" stroke="#674B34" stroke-width="5"/>
<path d="M1120.24 750.961C1122.68 749.584 1124.81 747.745 1126.52 745.549C1128.23 743.353 1129.48 740.843 1130.21 738.162C1130.93 735.48 1131.11 732.681 1130.75 729.922C1130.38 727.164 1129.46 724.501 1128.06 722.086L1111.8 694.179L1118.51 689.09L1139.54 725.194C1141.92 729.273 1142.86 734.011 1142.22 738.66C1141.58 743.309 1139.4 747.606 1136.01 750.874C1132.62 754.143 1128.23 756.198 1123.51 756.717C1118.8 757.235 1114.03 756.187 1109.97 753.737C1113.58 753.691 1117.12 752.735 1120.24 750.961V750.961Z" fill="#B72732"/>
<path d="M1115.5 729.936C1116.07 730.09 1116.67 730.072 1117.24 729.883C1117.8 729.695 1118.29 729.344 1118.65 728.876C1119.01 728.407 1119.22 727.843 1119.26 727.253C1119.3 726.662 1119.17 726.074 1118.87 725.561L1105.96 703.071C1105.57 702.383 1104.92 701.881 1104.15 701.674C1103.38 701.467 1102.57 701.573 1101.88 701.968C1101.19 702.362 1100.69 703.014 1100.48 703.779C1100.28 704.544 1100.38 705.36 1100.78 706.048L1113.69 728.539C1113.88 728.879 1114.14 729.178 1114.45 729.418C1114.77 729.658 1115.12 729.834 1115.5 729.936Z" fill="#B72732"/>
<path d="M1061.41 710.458L1064.05 711.172C1075.01 714.145 1086.64 713.409 1097.16 709.079C1107.69 704.749 1116.52 697.064 1122.3 687.208C1122.49 686.873 1122.62 686.503 1122.68 686.119C1122.73 685.735 1122.71 685.344 1122.61 684.969C1122.52 684.594 1122.35 684.242 1122.12 683.932C1121.89 683.623 1121.6 683.363 1121.27 683.167C1120.93 682.971 1120.57 682.843 1120.19 682.789C1119.8 682.736 1119.42 682.759 1119.04 682.857C1118.67 682.955 1118.32 683.126 1118.01 683.36C1117.7 683.594 1117.44 683.887 1117.25 684.222C1112.12 692.963 1104.29 699.777 1094.96 703.616C1085.63 707.455 1075.31 708.107 1065.6 705.47L1062.95 704.755C1053.24 702.125 1044.67 696.357 1038.54 688.338C1032.42 680.319 1029.09 670.49 1029.06 660.36C1029.06 659.972 1028.99 659.588 1028.84 659.231C1028.69 658.873 1028.47 658.548 1028.2 658.275C1027.93 658.002 1027.6 657.786 1027.25 657.64C1026.89 657.493 1026.51 657.418 1026.12 657.42C1025.74 657.422 1025.36 657.501 1025 657.651C1024.65 657.801 1024.32 658.021 1024.05 658.297C1023.78 658.572 1023.56 658.899 1023.42 659.258C1023.27 659.618 1023.19 660.002 1023.19 660.39C1023.22 671.817 1026.97 682.906 1033.87 691.952C1040.78 700.999 1050.45 707.501 1061.41 710.458V710.458Z" fill="#674B34"/>
<path d="M1007.73 605.389C1062.62 605.389 1107.12 560.891 1107.12 506C1107.12 451.109 1062.62 406.611 1007.73 406.611C952.836 406.611 908.338 451.109 908.338 506C908.338 560.891 952.836 605.389 1007.73 605.389Z" fill="#4EBAEA" stroke="#674B34" stroke-width="5"/>
<path d="M932.427 506C932.427 456.222 969.967 415.219 1018.28 409.741C1014.62 409.323 1010.93 409.113 1007.24 409.111C953.735 409.111 910.356 452.49 910.356 506C910.356 559.51 953.735 602.889 1007.24 602.889C1010.93 602.887 1014.62 602.677 1018.28 602.259C969.967 596.781 932.427 555.778 932.427 506Z" fill="#2E99D4"/>
<path d="M979.657 482.164C978.779 482.164 977.937 481.815 977.316 481.194C976.695 480.574 976.347 479.732 976.346 478.854C976.346 476.454 975.393 474.152 973.696 472.455C971.999 470.758 969.698 469.805 967.298 469.805C964.898 469.805 962.596 470.758 960.899 472.455C959.202 474.152 958.249 476.454 958.249 478.854C958.249 479.732 957.9 480.574 957.279 481.194C956.658 481.815 955.816 482.164 954.938 482.164C954.06 482.164 953.218 481.815 952.597 481.194C951.977 480.574 951.628 479.732 951.628 478.854C951.628 474.698 953.279 470.712 956.217 467.773C959.156 464.835 963.142 463.184 967.298 463.184C971.454 463.184 975.439 464.835 978.378 467.773C981.317 470.712 982.968 474.698 982.968 478.854C982.968 479.732 982.619 480.574 981.998 481.194C981.377 481.815 980.535 482.164 979.657 482.164ZM1059.55 482.164C1058.67 482.164 1057.83 481.815 1057.21 481.194C1056.59 480.574 1056.24 479.732 1056.24 478.854C1056.24 476.454 1055.29 474.152 1053.59 472.455C1051.89 470.758 1049.59 469.805 1047.19 469.805C1044.79 469.805 1042.49 470.758 1040.79 472.455C1039.1 474.152 1038.14 476.454 1038.14 478.854C1038.14 479.732 1037.79 480.574 1037.17 481.194C1036.55 481.815 1035.71 482.164 1034.83 482.164C1033.95 482.164 1033.11 481.815 1032.49 481.194C1031.87 480.574 1031.52 479.732 1031.52 478.854C1031.52 474.698 1033.17 470.712 1036.11 467.773C1039.05 464.835 1043.04 463.184 1047.19 463.184C1051.35 463.184 1055.33 464.835 1058.27 467.773C1061.21 470.712 1062.86 474.698 1062.86 478.854C1062.86 479.732 1062.51 480.574 1061.89 481.194C1061.27 481.815 1060.43 482.164 1059.55 482.164V482.164Z" fill="#74563A"/>
<path d="M911.775 403.392L911.775 403.393C910.131 411.201 906.286 417.334 902.291 423.705C901.846 424.416 901.398 425.13 900.952 425.849C896.566 432.915 892.338 440.463 892.338 450.428C892.338 457.003 894.95 463.309 899.599 467.958C904.248 472.607 910.554 475.219 917.129 475.219C923.704 475.219 930.009 472.607 934.659 467.958C939.308 463.309 941.92 457.003 941.92 450.428C941.92 440.463 937.692 432.915 933.306 425.849C932.859 425.13 932.412 424.416 931.966 423.705C927.971 417.334 924.127 411.201 922.483 403.393C922.051 401.344 920.494 398.5 917.129 398.5C913.763 398.5 912.206 401.344 911.775 403.392Z" fill="#4EBAEA" stroke="#674B34" stroke-width="5"/>
<path d="M908.08 450.428C908.08 435.864 917.775 426.754 923.75 414.472C922.08 411.118 920.833 407.569 920.036 403.908C919.705 402.336 918.734 401 917.129 401C915.523 401 914.552 402.336 914.221 403.908C910.344 422.322 894.838 432.014 894.838 450.428C894.84 453.921 895.663 457.365 897.24 460.482C898.818 463.599 901.105 466.302 903.918 468.374C906.731 470.445 909.991 471.827 913.435 472.408C916.88 472.989 920.413 472.753 923.75 471.719C919.209 470.305 915.239 467.476 912.42 463.646C909.601 459.815 908.08 455.184 908.08 450.428Z" fill="#2E99D4"/>
<mask id="path-29-outside-1_3_262" maskUnits="userSpaceOnUse" x="945.838" y="519" width="123" height="63" fill="black">
<rect fill="white" x="945.838" y="519" width="123" height="63"/>
<path fill-rule="evenodd" clip-rule="evenodd" d="M1059.43 524.036C1058.65 523.936 1057.86 524.046 1057.14 524.352C1041.5 530.984 1024.71 534.449 1007.73 534.549H1007.07C989.863 534.537 972.831 531.069 956.987 524.352C956.265 524.045 955.475 523.936 954.698 524.036C953.92 524.135 953.183 524.44 952.562 524.918C951.94 525.396 951.457 526.031 951.163 526.758C950.868 527.484 950.771 528.276 950.883 529.052C951.209 531.375 951.683 533.674 952.302 535.936C952.303 535.938 952.305 535.94 952.307 535.94V535.94C952.307 535.94 952.308 535.94 952.308 535.94C952.378 535.973 952.447 536.005 952.516 536.038C952.787 536.165 952.989 536.404 953.072 536.691C956.369 548.005 963.208 557.974 972.594 565.125C982.21 572.451 993.966 576.414 1006.05 576.404H1009.14C1009.59 576.404 1010.04 576.398 1010.48 576.387C1010.77 576.38 1011.05 576.368 1011.33 576.357L1011.42 576.353C1011.47 576.352 1011.51 576.35 1011.56 576.348C1011.62 576.346 1011.69 576.343 1011.75 576.34C1012.14 576.322 1012.52 576.299 1012.9 576.274C1012.93 576.272 1012.96 576.27 1013 576.267C1013.38 576.241 1013.76 576.211 1014.14 576.177C1014.15 576.176 1014.16 576.175 1014.18 576.174C1014.19 576.173 1014.2 576.172 1014.22 576.171C1014.22 576.171 1014.22 576.17 1014.22 576.17V576.17C1014.22 576.17 1014.22 576.17 1014.22 576.169C1025.39 575.136 1035.98 570.725 1044.58 563.524C1053.11 556.379 1059.28 546.824 1062.29 536.113C1062.32 535.99 1062.22 535.871 1062.09 535.884V535.884C1061.97 535.898 1061.87 535.779 1061.9 535.656C1062.48 533.484 1062.93 531.279 1063.24 529.052C1063.36 528.276 1063.26 527.484 1062.96 526.758C1062.67 526.031 1062.19 525.396 1061.57 524.918C1060.94 524.44 1060.21 524.135 1059.43 524.036Z"/>
</mask>
<path d="M1057.14 524.352L1059.09 528.955L1059.09 528.954L1057.14 524.352ZM1059.43 524.036L1058.79 528.995L1059.43 524.036ZM1007.73 534.549V539.549H1007.74L1007.76 539.549L1007.73 534.549ZM1007.07 534.549L1007.07 539.549H1007.07V534.549ZM956.987 524.352L955.033 528.954L955.035 528.955L956.987 524.352ZM954.698 524.036L954.063 519.076L954.063 519.076L954.698 524.036ZM952.562 524.918L955.612 528.88L955.612 528.88L952.562 524.918ZM951.163 526.758L946.53 524.877L946.53 524.877L951.163 526.758ZM950.883 529.052L955.834 528.356L955.833 528.348L955.832 528.339L950.883 529.052ZM972.594 565.125L975.625 561.148L975.625 561.148L972.594 565.125ZM1006.05 576.404L1006.05 571.404L1006.05 571.404L1006.05 576.404ZM1010.48 576.387L1010.37 571.388L1010.35 571.388L1010.48 576.387ZM1011.33 576.357L1011.13 571.361L1011.13 571.361L1011.33 576.357ZM1011.42 576.353L1011.62 581.349L1011.63 581.349L1011.42 576.353ZM1011.56 576.348L1011.38 571.351L1011.38 571.351L1011.56 576.348ZM1011.75 576.34L1011.52 571.346L1011.51 571.346L1011.75 576.34ZM1012.9 576.274L1013.23 581.263L1013.24 581.262L1012.9 576.274ZM1013 576.267L1012.65 571.279L1012.65 571.279L1013 576.267ZM1014.14 576.177L1013.69 571.197L1013.69 571.197L1014.14 576.177ZM1014.18 576.174L1013.81 571.188L1013.8 571.188L1014.18 576.174ZM1044.58 563.524L1041.37 559.69L1041.37 559.69L1044.58 563.524ZM1063.24 529.052L1058.3 528.339L1058.29 528.348L1058.29 528.356L1063.24 529.052ZM1061.57 524.918L1064.62 520.956L1064.62 520.956L1061.57 524.918ZM1061.9 535.656L1066.73 536.951L1061.9 535.656ZM1062.29 536.113L1057.47 534.762L1062.29 536.113ZM952.516 536.038L950.387 540.562L952.516 536.038ZM1014.22 576.169L1014.68 581.148L1014.22 576.169ZM952.308 535.94L954.446 531.42L952.308 535.94ZM1014.22 576.171L1013.78 571.19L1014.22 576.171ZM952.302 535.936L957.125 534.617L952.302 535.936ZM1059.09 528.954C1059 528.994 1058.9 529.008 1058.79 528.995L1060.06 519.076C1058.41 518.864 1056.72 519.097 1055.18 519.75L1059.09 528.954ZM1007.76 539.549C1025.4 539.446 1042.85 535.845 1059.09 528.955L1055.19 519.749C1040.16 526.123 1024.02 529.453 1007.7 529.549L1007.76 539.549ZM1007.07 539.549H1007.73V529.549H1007.07V539.549ZM955.035 528.955C971.496 535.934 989.19 539.537 1007.07 539.549L1007.08 529.549C990.536 529.538 974.167 526.205 958.939 519.748L955.035 528.955ZM955.332 528.995C955.23 529.008 955.127 528.994 955.033 528.954L958.941 519.75C957.404 519.097 955.72 518.864 954.063 519.076L955.332 528.995ZM955.612 528.88C955.531 528.942 955.434 528.982 955.332 528.995L954.063 519.076C952.406 519.288 950.835 519.937 949.511 520.957L955.612 528.88ZM955.795 528.639C955.757 528.734 955.693 528.817 955.612 528.88L949.511 520.957C948.187 521.976 947.158 523.329 946.53 524.877L955.795 528.639ZM955.832 528.339C955.846 528.44 955.834 528.544 955.795 528.639L946.53 524.877C945.901 526.425 945.696 528.112 945.934 529.765L955.832 528.339ZM957.125 534.617C956.562 532.559 956.131 530.469 955.834 528.356L945.932 529.747C946.287 532.281 946.804 534.788 947.48 537.256L957.125 534.617ZM954.646 531.514C954.579 531.483 954.513 531.451 954.446 531.42L950.171 540.46C950.243 540.494 950.315 540.528 950.387 540.562L954.646 531.514ZM948.272 538.089C951.868 550.43 959.327 561.303 969.564 569.103L975.625 561.148C967.089 554.645 960.871 545.58 957.873 535.292L948.272 538.089ZM969.564 569.103C980.052 577.092 992.874 581.415 1006.06 581.404L1006.05 571.404C995.058 571.413 984.368 567.809 975.625 561.148L969.564 569.103ZM1006.05 581.404H1009.14V571.404H1006.05V581.404ZM1009.14 581.404C1009.64 581.404 1010.13 581.398 1010.62 581.385L1010.35 571.388C1009.95 571.399 1009.55 571.404 1009.14 571.404V581.404ZM1010.6 581.385C1010.94 581.377 1011.26 581.364 1011.54 581.353L1011.13 571.361C1010.84 571.373 1010.6 571.383 1010.37 571.388L1010.6 581.385ZM1011.54 581.353L1011.62 581.349L1011.22 571.358L1011.13 571.361L1011.54 581.353ZM1011.63 581.349C1011.66 581.348 1011.69 581.347 1011.74 581.345L1011.38 571.351C1011.33 571.353 1011.27 571.355 1011.21 571.358L1011.63 581.349ZM1011.74 581.345C1011.8 581.343 1011.89 581.339 1011.99 581.335L1011.51 571.346C1011.48 571.348 1011.45 571.349 1011.38 571.351L1011.74 581.345ZM1011.99 581.335C1012.41 581.315 1012.83 581.29 1013.23 581.263L1012.56 571.285C1012.2 571.309 1011.86 571.33 1011.52 571.346L1011.99 581.335ZM1013.24 581.262C1013.24 581.262 1013.25 581.262 1013.27 581.26C1013.28 581.259 1013.31 581.258 1013.34 581.255L1012.65 571.279C1012.65 571.279 1012.65 571.28 1012.64 571.28C1012.64 571.28 1012.64 571.28 1012.63 571.281C1012.62 571.282 1012.59 571.283 1012.56 571.285L1013.24 581.262ZM1013.34 581.256C1013.76 581.227 1014.17 581.194 1014.58 581.157L1013.69 571.197C1013.34 571.228 1013 571.255 1012.65 571.279L1013.34 581.256ZM1014.58 581.157C1014.56 581.159 1014.55 581.16 1014.55 581.16C1014.54 581.16 1014.54 581.16 1014.54 581.16C1014.54 581.16 1014.55 581.16 1014.55 581.16L1013.8 571.188C1013.8 571.188 1013.75 571.192 1013.69 571.197L1014.58 581.157ZM1014.55 581.16C1014.56 581.159 1014.6 581.156 1014.65 581.151L1013.78 571.19C1013.79 571.188 1013.8 571.188 1013.81 571.187C1013.81 571.187 1013.81 571.187 1013.81 571.187C1013.81 571.187 1013.81 571.187 1013.81 571.188L1014.55 581.16ZM1014.68 581.148C1026.86 580.021 1038.41 575.211 1047.79 567.357L1041.37 559.69C1033.54 566.239 1023.91 570.251 1013.76 571.191L1014.68 581.148ZM1047.79 567.357C1057.09 559.566 1063.82 549.145 1067.1 537.464L1057.47 534.762C1054.74 544.503 1049.13 553.193 1041.37 559.69L1047.79 567.357ZM1058.29 528.356C1058.01 530.381 1057.6 532.387 1057.07 534.361L1066.73 536.951C1067.36 534.582 1067.85 532.177 1068.2 529.748L1058.29 528.356ZM1058.33 528.639C1058.29 528.544 1058.28 528.44 1058.3 528.339L1068.19 529.765C1068.43 528.112 1068.23 526.424 1067.6 524.876L1058.33 528.639ZM1058.52 528.88C1058.43 528.817 1058.37 528.734 1058.33 528.639L1067.6 524.876C1066.97 523.328 1065.94 521.975 1064.62 520.956L1058.52 528.88ZM1058.79 528.995C1058.69 528.982 1058.6 528.943 1058.52 528.88L1064.62 520.956C1063.29 519.937 1061.72 519.288 1060.06 519.076L1058.79 528.995ZM1061.57 530.912C1064.95 530.557 1067.6 533.704 1066.73 536.951L1057.07 534.361C1056.13 537.855 1058.98 541.239 1062.62 540.857L1061.57 530.912ZM1067.1 537.464C1068.09 533.928 1065.2 530.531 1061.57 530.912L1062.62 540.857C1059.24 541.211 1056.55 538.052 1057.47 534.762L1067.1 537.464ZM950.387 540.562C949.347 540.073 948.585 539.165 948.272 538.089L957.873 535.292C957.392 533.642 956.226 532.258 954.646 531.514L950.387 540.562ZM1014.78 571.202C1021 571.91 1020.42 580.617 1014.68 581.148L1013.76 571.191C1008.01 571.722 1007.43 580.43 1013.65 581.138L1014.78 571.202ZM952.307 540.94C951.568 540.94 950.839 540.776 950.171 540.46L954.446 531.42C953.777 531.104 953.047 530.94 952.307 530.94V540.94ZM1014.65 581.151C1020.69 580.621 1020.74 571.88 1014.78 571.202L1013.65 581.138C1007.69 580.46 1007.74 571.72 1013.78 571.19L1014.65 581.151ZM947.48 537.256C948.075 539.431 950.051 540.94 952.307 540.94V530.94C954.558 530.94 956.531 532.445 957.125 534.617L947.48 537.256Z" fill="#674B34" mask="url(#path-29-outside-1_3_262)"/>
<path d="M1039.82 538.223L1008.92 543.52L952.838 535.861C956.038 547.518 962.979 557.8 972.594 565.126C982.21 572.451 993.966 576.414 1006.05 576.405H1009.14C1009.59 576.405 1010.04 576.399 1010.48 576.387C1010.8 576.379 1011.11 576.366 1011.42 576.354C1011.53 576.349 1011.64 576.346 1011.75 576.341C1012.14 576.323 1012.52 576.3 1012.9 576.274C1012.93 576.272 1012.96 576.27 1013 576.268C1013.38 576.241 1013.76 576.211 1014.14 576.177C1014.16 576.175 1014.19 576.173 1014.22 576.171L1014.21 576.17C1025.38 575.137 1035.97 570.726 1044.58 563.524C1053.18 556.322 1059.38 546.672 1062.36 535.857L1039.82 538.223Z" fill="#74563A"/>
<path d="M1013.68 576.171C1012.01 576.321 1010.32 576.405 1008.61 576.405H1005.52C993.429 576.414 981.673 572.451 972.058 565.126C962.442 557.8 955.501 547.518 952.301 535.862C952.173 535.389 952.049 534.913 951.935 534.431C951.758 533.734 951.599 533.028 951.458 532.322C951.409 532.083 951.361 531.845 951.317 531.606C951.29 531.47 951.264 531.328 951.242 531.187C951.197 530.966 951.158 530.741 951.122 530.521C951.069 530.216 951.021 529.916 950.977 529.611C950.937 529.351 950.897 529.095 950.862 528.834C950.862 528.826 950.858 528.812 950.862 528.804C950.782 528.038 950.902 527.266 951.212 526.562C951.522 525.858 952.01 525.247 952.629 524.789C953.247 524.332 953.974 524.044 954.738 523.953C955.502 523.863 956.276 523.974 956.984 524.275C959.072 525.157 961.372 526.067 963.879 526.963C964.405 532.095 965.653 537.126 967.587 541.909C972.997 555.241 983.384 565.944 996.547 571.752C1001.98 574.143 1007.77 575.636 1013.68 576.171Z" fill="#674B34"/>
<path d="M1031.16 571.752C1025.73 574.144 1019.94 575.636 1014.03 576.17L1014.03 576.17C1014 576.173 1013.97 576.175 1013.95 576.177C1013.57 576.211 1013.19 576.241 1012.81 576.267C1012.78 576.27 1012.74 576.272 1012.71 576.274C1012.33 576.299 1011.95 576.322 1011.56 576.34C1011.45 576.346 1011.34 576.349 1011.23 576.353C1010.92 576.366 1010.61 576.379 1010.3 576.387C1009.85 576.398 1009.4 576.404 1008.95 576.404H1005.87C998.218 576.415 990.653 574.831 983.653 571.752C983.239 571.571 982.832 571.381 982.426 571.191C982.016 570.997 981.614 570.803 981.212 570.6C980.409 570.198 979.619 569.774 978.838 569.337C980.956 567.663 983.283 566.27 985.759 565.193C991.696 562.54 999.222 560.955 1007.41 560.955C1019.26 560.955 1029.72 564.274 1035.98 569.337C1034.42 570.216 1032.81 571.021 1031.16 571.752Z" fill="#E5303E"/>
<path d="M1057.14 524.274C1057.86 523.967 1058.65 523.858 1059.43 523.958C1060.21 524.057 1060.94 524.362 1061.57 524.84C1062.19 525.318 1062.67 525.953 1062.96 526.68C1063.26 527.406 1063.36 528.198 1063.24 528.974C1062.92 531.296 1062.44 533.595 1061.82 535.857L1061.82 535.861C1044.7 543.957 1026 548.156 1007.06 548.156C988.127 548.156 969.426 543.957 952.308 535.861H952.303C951.684 533.598 951.209 531.298 950.883 528.974C950.771 528.198 950.868 527.406 951.163 526.68C951.457 525.953 951.94 525.318 952.562 524.84C953.183 524.362 953.92 524.057 954.698 523.958C955.475 523.858 956.265 523.967 956.987 524.274C972.831 530.991 989.863 534.459 1007.07 534.471H1007.73C1024.71 534.371 1041.5 530.906 1057.14 524.274V524.274Z" fill="white"/>
<path d="M967.587 541.909C966.85 541.67 966.129 541.431 965.424 541.189C965.389 541.176 965.353 541.163 965.314 541.15C964.943 541.022 964.581 540.894 964.219 540.766C963.8 540.62 963.385 540.47 962.979 540.32C962.325 540.086 961.69 539.847 961.072 539.609C960.608 539.433 960.158 539.256 959.717 539.079C959.328 538.925 958.944 538.77 958.569 538.616C958.542 538.607 958.516 538.598 958.494 538.589C958.079 538.417 957.677 538.25 957.28 538.082C956.468 537.742 955.686 537.402 954.945 537.071C954.76 536.992 954.574 536.908 954.393 536.824C953.66 536.497 952.967 536.175 952.305 535.862H952.301C952.16 535.336 952.018 534.807 951.895 534.273C951.864 534.167 951.842 534.056 951.815 533.95C951.687 533.412 951.568 532.869 951.458 532.322C951.387 531.986 951.321 531.651 951.264 531.311C951.211 531.05 951.166 530.785 951.122 530.521C951.069 530.216 951.021 529.916 950.977 529.611C950.937 529.351 950.897 529.095 950.862 528.834V528.804C950.782 528.038 950.902 527.266 951.212 526.562C951.522 525.858 952.01 525.247 952.629 524.789C953.247 524.332 953.974 524.044 954.738 523.953C955.502 523.863 956.276 523.974 956.984 524.275C957.156 524.35 957.333 524.425 957.514 524.495C957.69 524.57 957.867 524.645 958.048 524.72C958.816 525.038 959.606 525.356 960.427 525.674C960.666 525.767 960.904 525.859 961.147 525.952C961.253 525.996 961.359 526.036 961.464 526.076C961.601 526.124 961.738 526.177 961.875 526.23C961.906 526.243 961.941 526.252 961.972 526.265C962.144 526.327 962.312 526.393 962.489 526.455C962.608 526.499 962.727 526.544 962.846 526.588C963.186 526.716 963.53 526.839 963.879 526.963C964.187 529.97 964.744 532.946 965.543 535.862C966.105 537.916 966.787 539.935 967.587 541.909V541.909Z" fill="#E0E0E2"/>
<g filter="url(#filter0_i_3_262)">
<path d="M625.902 595.845C633.422 577.141 632.879 562.566 627.924 548.352C626.86 545.208 624.493 541.928 620.485 540.317C613.971 537.698 606.411 541.06 603.793 547.574C602.584 550.58 602.679 553.722 603.543 556.398C606.434 566.096 606.887 574.62 602.522 585.476C594.465 605.517 572.191 612.664 552.15 604.606L551.816 604.472C531.775 596.414 521.116 575.638 529.039 555.932C532.732 546.746 538.76 540.439 546.991 535.407C548.899 534.04 551.175 532.239 552.585 528.732C555.405 521.717 552.177 513.823 545.163 511.003C540.653 509.19 536.039 510.051 532.961 511.918C521.885 518.717 512.441 528.694 505.391 546.23C490.955 582.136 508.105 618.132 541.34 631.494L541.674 631.629C575.242 645.125 612.069 630.249 625.902 595.845Z" fill="#674B34"/>
<path d="M703.33 432.098C708.235 438.085 716.847 438.941 722.835 434.036C728.822 429.131 729.678 420.518 724.773 414.531L707.32 393.227L724.446 379.197L767.006 388.542C772.136 389.691 777.277 389.434 782.151 385.442C787.303 381.221 789.121 373.216 784.216 367.229C781.479 363.887 778.261 362.8 774.005 361.865L744.277 355.97C752.12 341.4 752.021 325.658 739.474 310.341L739.245 310.063C731.717 300.873 722.519 295.61 712.64 294.629C700.987 293.471 688.528 297.861 676.136 308.013L642.3 335.733C636.313 340.638 635.457 349.25 640.362 355.238L703.33 432.098ZM691.806 374.291L668.878 346.303L690.181 328.851C700.624 320.295 710.908 319.782 718.437 328.972L718.665 329.25C725.395 337.466 723.97 347.94 713.527 356.496L691.806 374.291Z" fill="#674B34"/>
<path d="M962.344 309.379L1033.01 306.079C1039.84 305.76 1045.16 300.105 1044.84 293.273C1044.52 286.44 1038.69 281.126 1031.86 281.446L974.858 284.108L973.624 257.676L1021.63 255.434C1028.46 255.115 1033.79 249.461 1033.47 242.628C1033.15 235.796 1027.31 230.482 1020.48 230.801L972.474 233.043L971.281 207.511L1027.38 204.891C1034.21 204.572 1039.53 198.917 1039.22 192.085C1038.9 185.252 1033.06 179.939 1026.23 180.258L956.466 183.516C948.734 183.877 942.906 190.276 943.267 198.008L947.852 296.181C948.213 303.912 954.612 309.74 962.344 309.379Z" fill="#674B34"/>
<path d="M1188.66 340.803C1184.72 346.829 1186.24 354.704 1192.27 358.644C1197.09 361.797 1202.78 361.647 1207.69 358.408L1226.4 345.911L1272.8 376.254L1269.04 397.456C1268 403.656 1269.55 409.184 1274.97 412.73C1281.15 416.769 1289.22 414.951 1293.26 408.774C1294.24 407.268 1294.78 405.466 1295.11 403.316L1312.63 296.271C1313.82 288.872 1311.56 282.452 1305.23 278.314L1303.88 277.427C1297.55 273.29 1290.62 273.7 1284.31 277.75L1193.27 336.718C1191.43 337.883 1189.75 339.146 1188.66 340.803ZM1248.39 331.039L1285.76 305.795L1277.61 350.151L1248.39 331.039Z" fill="#674B34"/>
<path d="M1362.11 503.944C1354.7 505.434 1350.04 512.428 1351.53 519.839C1353.02 527.251 1360.05 532.08 1367.47 530.591L1428.88 518.245L1397.42 548.988C1393.75 552.663 1391.81 556.724 1392.81 561.666C1393.8 566.607 1397.16 569.604 1401.96 571.576L1443.46 588.021L1381.87 600.402C1374.46 601.891 1369.49 609.133 1370.98 616.545C1372.5 624.133 1379.71 628.927 1387.3 627.401L1485.41 607.677C1493 606.152 1497.79 598.945 1496.27 591.357L1495.67 588.357C1494.57 582.887 1491.49 579.466 1486.34 577.564L1426.05 555.349L1472.93 511.777C1476.49 508.49 1478.67 503.828 1477.5 498.005L1476.9 495.005C1475.37 487.417 1468.17 482.623 1460.58 484.148L1362.11 503.944Z" fill="#674B34"/>
</g>
<g filter="url(#filter1_i_3_262)">
<path d="M805.222 1185.89L872.965 1206.26C879.515 1208.23 886.414 1204.67 888.384 1198.12C890.353 1191.57 886.617 1184.62 880.067 1182.65L825.424 1166.22L833.044 1140.88L879.068 1154.72C885.618 1156.69 892.517 1153.12 894.487 1146.57C896.456 1140.02 892.72 1133.07 886.17 1131.1L840.146 1117.26L847.507 1092.78L901.287 1108.96C907.838 1110.93 914.736 1107.36 916.706 1100.81C918.676 1094.26 914.939 1087.31 908.389 1085.34L841.508 1065.23C834.096 1063 826.472 1067.1 824.243 1074.51L795.94 1168.63C793.711 1176.04 797.81 1183.66 805.222 1185.89Z" fill="#674B34"/>
<path d="M1068.57 1211.73C1070.41 1218.69 1077.28 1222.83 1084.24 1220.98C1089.81 1219.51 1093.5 1215.17 1094.38 1209.36L1097.6 1187.09L1151.19 1172.88L1164.44 1189.85C1168.35 1194.77 1173.5 1197.32 1179.76 1195.66C1186.89 1193.77 1190.94 1186.55 1189.05 1179.42C1188.59 1177.68 1187.6 1176.08 1186.23 1174.39L1118.36 1089.78C1113.65 1083.95 1107.37 1081.33 1100.06 1083.27L1098.5 1083.69C1091.19 1085.62 1086.86 1091.05 1085.65 1098.45L1068.61 1205.57C1068.25 1207.72 1068.06 1209.81 1068.57 1211.73ZM1101.25 1160.79L1107.47 1116.13L1135 1151.85L1101.25 1160.79Z" fill="#674B34"/>
<path d="M1345.45 1080.29C1351.38 1084.99 1359.72 1084.02 1364.42 1078.1C1369.11 1072.17 1368.26 1063.69 1362.33 1058.99L1313.25 1020.08L1357.03 1024.24C1362.21 1024.67 1366.56 1023.52 1369.69 1019.57C1372.82 1015.62 1372.94 1011.12 1371.35 1006.18L1357.1 963.884L1406.33 1002.91C1412.25 1007.6 1420.99 1006.72 1425.69 1000.79C1430.5 994.729 1429.5 986.132 1423.44 981.324L1345.01 919.156C1338.94 914.348 1330.34 915.343 1325.54 921.408L1323.64 923.806C1320.17 928.179 1319.54 932.736 1321.42 937.9L1343.4 998.269L1279.86 990.628C1275.05 990.031 1270.08 991.374 1266.39 996.029L1264.49 998.427C1259.68 1004.49 1260.67 1013.09 1266.74 1017.9L1345.45 1080.29Z" fill="#674B34"/>
<path d="M600.949 1012.02C595.045 1017.03 594.333 1025.65 599.337 1031.56C604.342 1037.46 612.968 1038.18 618.872 1033.17L685.743 976.492L702.968 996.814C707.507 1002.17 715.625 1002.84 720.981 998.3C726.336 993.761 727.006 985.643 722.467 980.287L670.094 918.497C665.555 913.142 657.437 912.472 652.081 917.011C646.726 921.55 646.056 929.668 650.595 935.023L667.82 955.346L600.949 1012.02Z" fill="#674B34"/>
</g>
</g>
<defs>
<filter id="filter0_i_3_262" x="480.883" y="179.636" width="1018.12" height="476.165" filterUnits="userSpaceOnUse" color-interpolation-filters="sRGB">
<feFlood flood-opacity="0" result="BackgroundImageFix"/>
<feBlend mode="normal" in="SourceGraphic" in2="BackgroundImageFix" result="shape"/>
<feColorMatrix in="SourceAlpha" type="matrix" values="0 0 0 0 0 0 0 0 0 0 0 0 0 0 0 0 0 0 127 0" result="hardAlpha"/>
<feOffset dx="3" dy="-5"/>
<feComposite in2="hardAlpha" operator="arithmetic" k2="-1" k3="1"/>
<feColorMatrix type="matrix" values="0 0 0 0 0 0 0 0 0 0 0 0 0 0 0 0 0 0 0.2 0"/>
<feBlend mode="normal" in2="shape" result="effect1_innerShadow_3_262"/>
</filter>
<filter id="filter1_i_3_262" x="564.888" y="908.748" width="869.411" height="315.508" filterUnits="userSpaceOnUse" color-interpolation-filters="sRGB">
<feFlood flood-opacity="0" result="BackgroundImageFix"/>
<feBlend mode="normal" in="SourceGraphic" in2="BackgroundImageFix" result="shape"/>
<feColorMatrix in="SourceAlpha" type="matrix" values="0 0 0 0 0 0 0 0 0 0 0 0 0 0 0 0 0 0 127 0" result="hardAlpha"/>
<feOffset dx="3" dy="-5"/>
<feComposite in2="hardAlpha" operator="arithmetic" k2="-1" k3="1"/>
<feColorMatrix type="matrix" values="0 0 0 0 0 0 0 0 0 0 0 0 0 0 0 0 0 0 0.2 0"/>
<feBlend mode="normal" in2="shape" result="effect1_innerShadow_3_262"/>
</filter>
<clipPath id="clip0_3_262">
<rect width="2030" height="1430" fill="white"/>
</clipPath>
</defs>
</svg>
